Leonard Cohen - Songs From The Road [BDRip-720p-Mkv-Eng/Ac3][TNTVillage.Scambioetico]





General
Complete name                    : C:\Leonard Cohen - Songs From The Road [BDRip-720p-Eng-Ac3][RiP By MaX].mkv
Format                           : Matroska
File size                        : 2.18 GiB
Duration                         : 1h 11mn
Overall bit rate                 : 4 353 Kbps
Encoded date                     : UTC 2010-10-07 23:08:58
Writing application              : mkvmerge v4.3.0 ('Escape from the Island') built on Sep  5 2010 10:30:51
Writing library                  : libebml v1.0.0 + libmatroska v1.0.0

Video
ID                               : 1
Format                           : AVC
Format/Info                      : Advanced Video Codec
Format profile                   : High@L3.1
Format settings, CABAC           : Yes
Format settings, ReFrames        : 5 frames
Muxing mode                      : Container profile=Unknown@3.1
Codec ID                         : V_MPEG4/ISO/AVC
Duration                         : 1h 11mn
Bit rate                         : 3 717 Kbps
Width                            : 1 280 pixels
Height                           : 718 pixels
Display aspect ratio             : 16:9
Frame rate                       : 29.970 fps
Color space                      : YUV
Chroma subsampling               : 4:2:0
Bit depth                        : 8 bits
Scan type                        : Progressive
Bits/(Pixel*Frame)               : 0.135
Stream size                      : 1.82 GiB (83%)
Title                            : Leonard Cohen - Songs From The Road [BDRip 720p][RiP By MaX]
Writing library                  : x264 core 105 r1724 b02df7b
Encoding settings                : cabac=1 / ref=5 / deblock=1:0:0 / analyse=0x3:0x133 / me=hex / subme=7 / psy=1 / psy_rd=1.00:0.00 / mixed_ref=1 / me_range=16 / chroma_me=1 / trellis=1 / 8x8dct=1 / cqm=0 / deadzone=21,11 / fast_pskip=0 / chroma_qp_offset=-2 / threads=6 / sliced_threads=0 / nr=0 / decimate=0 / interlaced=0 / constrained_intra=0 / bframes=2 / b_pyramid=2 / b_adapt=1 / b_bias=0 / direct=3 / weightb=1 / open_gop=0 / weightp=2 / keyint=240 / keyint_min=24 / scenecut=40 / intra_refresh=0 / rc_lookahead=40 / rc=2pass / mbtree=1 / bitrate=3717 / ratetol=1.0 / qcomp=0.60 / qpmin=10 / qpmax=51 / qpstep=4 / cplxblur=20.0 / qblur=0.5 / ip_ratio=1.40 / aq=1:1.00
Language                         : Italian

Audio
ID                               : 2
Format                           : AC-3
Format/Info                      : Audio Coding 3
Mode extension                   : CM (complete main)
Codec ID                         : A_AC3
Duration                         : 1h 11mn
Bit rate mode                    : Constant
Bit rate                         : 640 Kbps
Channel(s)                       : 6 channels
Channel positions                : Front: L C R, Side: L R, LFE
Sampling rate                    : 48.0 KHz
Bit depth                        : 16 bits
Video delay                      : 14ms
Stream size                      : 329 MiB (15%)
Title                            : Eng Ac3 5.1

Menu
00:00:00.000                     : :Lover, Lover, Lover
00:08:32.479                     : :Bird on a Wire
00:14:56.028                     : :Chelsea Hotel
00:18:39.952                     : :Heart With No Companion
00:25:12.111                     : :That Don't Make It Junk
00:30:00.732                     : :Waiting For the Miracle
00:38:02.947                     : :Avalanche
00:42:19.504                     : :Suzanne
00:46:07.098                     : :Partisan, The
00:51:18.375                     : :Famous Blue Raincoat
00:56:53.010                     : :Hallelujah
01:05:29.492                     : :Closing Time